# xmcd
#
# Track frame offsets:
# 150
# 19710
# 30142
# 44350
# 57077
# 68065
# 80550
# 102932
# 113765
# 129665
# 149100
# 161905
# 171737
# 181670
# 192862
# 212557
#
# Disc length: 3004 seconds
#
#
# Revision: 0
# Processed by: cddbd v1.5.2PL0 Copyright (c) Steve Scherf et al.
# Submitted via: FreeRIP 2.96 
#
DISCID=df0bba10
DTITLE=John Lee Hooker - The Early Years Vol 1
DYEAR=2003
DGENRE=Blues
TTITLE0=You Ain't No Big Thing
TTITLE1=Big Legs, Tight Skirts
TTITLE2=My Grinding Mill
TTITLE3=Whiskey and Wimmen
TTITLE4=No Shoes
TTITLE5=I'm So Excited
TTITLE6=One Burbon, One Scotch, One Beer
TTITLE7=Bottle Up and Go
TTITLE8=One Way Ticket
TTITLE9=Half A Stanger
TTITLE10=Lost A Good Girl
TTITLE11=I Wanna Walk
TTITLE12=Dimples
TTITLE13=Let's Make It
TTITLE14=House Rent Boogie
TTITLE15=Baby Lee
EXTD=
EXTT0=
EXTT1=
EXTT2=
EXTT3=
EXTT4=
EXTT5=
EXTT6=
EXTT7=
EXTT8=
EXTT9=
EXTT10=
EXTT11=
EXTT12=
EXTT13=
EXTT14=
EXTT15=
PLAYORDER=
